<svg xmlns="http://www.w3.org/2000/svg" viewBox="0 0 89.1 44.8"><path fill="#FFF" d="M23.5.7C14.4.6 6 5.7 2.7 14.4c-3.2 8.3-1 18.3 5.7 24.3 6.6 6 16.8 7.2 24.7 3.2A22.1 22.1 0 0 0 44.7 20 21.4 21.4 0 0 0 23.5.7zm-4.3 27.5a5.1 5.1 0 0 1-7.9-.1c0 .9.1 1.6-1.1 1.7-1 .1-1.5-.5-1.5-1.4v-11c0-.6 0-1.6-.9-1.2h-.4c-1.2 0-1.6-1.7-.8-2.5.6-.4 1.2-.5 1.9-.3h2.4c.7-.1 1.3-.1 1.3.8v4.6c2.3-2.3 5.8-2.2 7.4.8a7.9 7.9 0 0 1-.4 8.6zm9.2 1.5h-4.9c-.9 0-1.7-.2-1.9-1.2-.2-.9.1-1.8 1.1-1.8l.7.2c1 .1.7-2.8.7-3.4 0-.8.4-3.5-.9-3.1-.9 0-1.5-.3-1.6-1.4 0-1.8 1.5-1.6 2.8-1.5.8.1 2.1-.4 2.8-.1.6.2.5.8.6 1.4v4.9c0 .6-.3 3.7.9 3.1.9 0 1.6.1 1.4 1.4-.2.8-.8 1.5-1.7 1.5zm10.6-11c0 2.5-3.7.1-3.9 1.9-.2 1.4 0 3 0 4.4 0 .7-.1 1.6.8 1.8 1.2.3 1.1-1.3 1.1-2 0-1.1 1-1.9 2.1-1.3 1.1.7.9 2.6.6 3.6-.8 2.6-4.4 3.5-6.6 2.1-2.2-1.4-1.5-4.6-1.4-6.8v-2c0-.6 0-.5-.5-.5-.4 0-1 .1-1.4-.1-.6-.3-.7-1.1-.6-1.7.4-1.3 1.8-.3 2.1-1.5.2-.8 0-1.7 0-2.6 0-.7.2-1 .9-1l1.3.1c.3 0 .9-.2 1.1-.1.6.4.2 2.1.2 2.8 0 .4-.1 1 .2 1.2.3.2 1.1.1 1.4.1 1.3.3 2.6.3 2.6 1.6z"/><path fill="#FFF" d="M14.2 20.2c-3.2 0-3.3 7.3.2 6.8 1.6-.3 1.8-2.2 1.8-3.5 0-1.4-.3-3.3-2-3.3zm72.9 3.5c-1.2-2.1-4-1.3-5.8-2.2-.9-.5-.8-1.5.2-1.7 1.2-.3 2 .5 2.8 1.3.6.6 1.8 1.2 2.5.4.4-.5.2-1.3.2-1.9 0-.6.5-1.7-.1-2.2-.7-.6-2.2-.2-2.3.8-2.4-1.8-6.5-1.3-7.3 2-.4 1.5 0 3.1 1.3 4 .9.6 2.1.8 3.2 1 .8.2 2.1.2 2.2 1.2.1 1.2-1.8 1.2-2.6 1-1.3-.3-1.7-2-2.9-2.3-1.1-.3-1.9.2-1.9 1.3 0 .8-.2 1.9-.1 2.8.2 1.4 2.6 1.3 2.6-.2 1.9 1.4 4.5 1.9 6.6.7.9-.5 1.7-1.3 2.1-2.4a4 4 0 0 0-.7-3.6zm-31.8-6.6c-1.3 0-2.4.6-3.5 1.6v-4.6c0-.9-.6-.9-1.4-.8-.4.1-.8.2-1.3.1-.3 0-.8-.2-1 0-.4.2 0 3.1 0 3.9v11.1c0 1.7 2.7 2 2.7.3v-.6a5.1 5.1 0 0 0 7.9.1c2-2.5 2-6.8.1-9.4a4.4 4.4 0 0 0-3.5-1.7zM54 27c-3.4 0-2.9-7.3.4-6.8 1.6.3 1.8 2.3 1.7 3.5 0 1.4-.4 3.3-2.1 3.3zm20.7-.1c-.8 0-.5-5.6-.6-6.4-.7-4.4-5.9-4.1-8.2-1.2 0-.7.2-1.7-.7-1.8-.5-.1-1.1.2-1.6.2l-1.6-.2c-1.2.1-2.1 1.8-1.1 2.7.5.5.9.1 1.4.1.5 0 .5.5.5 1v4.2c0 .3.1 1.1-.2 1.3-.3.3-.9-.2-1.3 0-1.1.3-1.1 2.1-.3 2.7.9.7 2.4.1 3.4.1.9 0 2.6.6 3.3-.2.3-.4.4-1 .3-1.5-.1-.8-.4-.8-1-1-.8-.3-.5-1.4-.5-2.1 0-1.8-.2-4.6 2.5-4.4 2.1.2 1.5 3.4 1.5 4.8v1.1c-.1.7-.4.4-1 .7-1.1.4-.8 2.4.3 2.7.8.2 1.7-.1 2.6-.1l1.9.2c.5.1.9.1 1.1-.4.2-.5.2-1.8.1-2.4-.1-.2-.7-.1-.8-.1z"/></svg>