<svg xmlns="http://www.w3.org/2000/svg" width="112" height="26" viewBox="0 0 112 26">
  <g fill="none" fill-rule="evenodd">
    <rect width="27" height="26" fill="#FFF" fill-rule="nonzero" rx="5"/>
    <path fill="#FFF" fill-rule="nonzero" d="M33.264,6.672 L37.68,6.672 C38.1066688,6.672 38.5279979,6.72266616 38.944,6.824 C39.3600021,6.92533384 39.730665,7.09066552 40.056,7.32 C40.381335,7.54933448 40.6453323,7.84533152 40.848,8.208 C41.0506677,8.57066848 41.152,9.00799744 41.152,9.52 C41.152,10.1600032 40.9706685,10.6879979 40.608,11.104 C40.2453315,11.5200021 39.7706696,11.8186658 39.184,12 L39.184,12.032 C39.5360018,12.0746669 39.8639985,12.1733326 40.168,12.328 C40.4720015,12.4826674 40.7306656,12.6799988 40.944,12.92 C41.1573344,13.1600012 41.3253327,13.4373318 41.448,13.752 C41.5706673,14.0666682 41.632,14.4053315 41.632,14.768 C41.632,15.3866698 41.5093346,15.9013313 41.264,16.312 C41.0186654,16.7226687 40.696002,17.0533321 40.296,17.304 C39.895998,17.5546679 39.4373359,17.7333328 38.92,17.84 C38.4026641,17.9466672 37.877336,18 37.344,18 L33.264,18 L33.264,6.672 Z M35.28,11.28 L37.12,11.28 C37.7920034,11.28 38.2959983,11.1493346 38.632,10.888 C38.9680017,10.6266654 39.136,10.2826688 39.136,9.856 C39.136,9.36533088 38.9626684,9.0000012 38.616,8.76 C38.2693316,8.5199988 37.7120038,8.4 36.944,8.4 L35.28,8.4 L35.28,11.28 Z M35.28,16.272 L37.136,16.272 C37.3920013,16.272 37.6666652,16.2560002 37.96,16.224 C38.2533348,16.1919998 38.5226654,16.1173339 38.768,16 C39.0133346,15.8826661 39.2159992,15.7146678 39.376,15.496 C39.5360008,15.2773322 39.616,14.9813352 39.616,14.608 C39.616,14.0106637 39.4213353,13.5946678 39.032,13.36 C38.6426647,13.1253322 38.0373374,13.008 37.216,13.008 L35.28,13.008 L35.28,16.272 Z M43.888,10.32 L45.808,10.32 L45.808,18 L43.888,18 L43.888,10.32 Z M43.616,7.712 C43.616,7.40266512 43.7306655,7.13333448 43.96,6.904 C44.1893345,6.67466552 44.4799982,6.56 44.832,6.56 C45.1840018,6.56 45.4799988,6.66933224 45.72,6.888 C45.9600012,7.10666776 46.08,7.38133168 46.08,7.712 C46.08,8.04266832 45.9600012,8.31733224 45.72,8.536 C45.4799988,8.75466776 45.1840018,8.864 44.832,8.864 C44.4799982,8.864 44.1893345,8.74933448 43.96,8.52 C43.7306655,8.29066552 43.616,8.02133488 43.616,7.712 Z M47.52,11.952 L47.52,10.32 L49.104,10.32 L49.104,8.096 L51.024,8.096 L51.024,10.32 L53.136,10.32 L53.136,11.952 L51.024,11.952 L51.024,15.312 C51.024,15.6960019 51.0959993,15.9999989 51.24,16.224 C51.3840007,16.4480011 51.6693312,16.56 52.096,16.56 C52.2666675,16.56 52.4533323,16.5413335 52.656,16.504 C52.8586677,16.4666665 53.0186661,16.4053338 53.136,16.32 L53.136,17.936 C52.9333323,18.0320005 52.6853348,18.0986665 52.392,18.136 C52.0986652,18.1733335 51.8400011,18.192 51.616,18.192 C51.1039974,18.192 50.685335,18.1360006 50.36,18.024 C50.034665,17.9119994 49.7786676,17.7413345 49.592,17.512 C49.4053324,17.2826655 49.2773337,16.997335 49.208,16.656 C49.1386663,16.314665 49.104,15.9200022 49.104,15.472 L49.104,11.952 L47.52,11.952 Z M61.12,16.848 L61.088,16.848 C60.8106653,17.3173357 60.4373357,17.6586656 59.968,17.872 C59.4986643,18.0853344 58.9920027,18.192 58.448,18.192 C57.8506637,18.192 57.3200023,18.088001 56.856,17.88 C56.3919977,17.671999 55.9946683,17.3866685 55.664,17.024 C55.3333317,16.6613315 55.0826675,16.2346691 54.912,15.744 C54.7413325,15.2533309 54.656,14.7253362 54.656,14.16 C54.656,13.5946638 54.7466658,13.0666691 54.928,12.576 C55.1093342,12.0853309 55.362665,11.6586685 55.688,11.296 C56.013335,10.9333315 56.405331,10.648001 56.864,10.44 C57.322669,10.231999 57.8239973,10.128 58.368,10.128 C58.7306685,10.128 59.0506653,10.165333 59.328,10.24 C59.6053347,10.314667 59.8506656,10.4106661 60.064,10.528 C60.2773344,10.6453339 60.4586659,10.770666 60.608,10.904 C60.7573341,11.037334 60.8799995,11.1679994 60.976,11.296 L61.024,11.296 L61.024,5.904 L62.944,5.904 L62.944,18 L61.12,18 L61.12,16.848 Z M56.576,14.16 C56.576,14.4586682 56.6266662,14.7466653 56.728,15.024 C56.8293338,15.3013347 56.9786657,15.5466656 57.176,15.76 C57.3733343,15.9733344 57.6106653,16.1439994 57.888,16.272 C58.1653347,16.4000006 58.4799982,16.464 58.832,16.464 C59.1840018,16.464 59.4986653,16.4000006 59.776,16.272 C60.0533347,16.1439994 60.2906657,15.9733344 60.488,15.76 C60.6853343,15.5466656 60.8346662,15.3013347 60.936,15.024 C61.0373338,14.7466653 61.088,14.4586682 61.088,14.16 C61.088,13.8613318 61.0373338,13.5733347 60.936,13.296 C60.8346662,13.0186653 60.6853343,12.7733344 60.488,12.56 C60.2906657,12.3466656 60.0533347,12.1760006 59.776,12.048 C59.4986653,11.9199994 59.1840018,11.856 58.832,11.856 C58.4799982,11.856 58.1653347,11.9199994 57.888,12.048 C57.6106653,12.1760006 57.3733343,12.3466656 57.176,12.56 C56.9786657,12.7733344 56.8293338,13.0186653 56.728,13.296 C56.6266662,13.5733347 56.576,13.8613318 56.576,14.16 Z M65.52,10.32 L67.44,10.32 L67.44,11.536 L67.472,11.536 C67.6853344,11.0879978 67.9893314,10.7413346 68.384,10.496 C68.7786686,10.2506654 69.2319974,10.128 69.744,10.128 C69.8613339,10.128 69.9759994,10.1386666 70.088,10.16 C70.2000006,10.1813334 70.3146661,10.2079998 70.432,10.24 L70.432,12.096 C70.2719992,12.0533331 70.1146674,12.0186668 69.96,11.992 C69.8053326,11.9653332 69.6533341,11.952 69.504,11.952 C69.0559978,11.952 68.6960014,12.0346658 68.424,12.2 C68.1519986,12.3653342 67.9440007,12.5546656 67.8,12.768 C67.6559993,12.9813344 67.5600002,13.1946656 67.512,13.408 C67.4639998,13.6213344 67.44,13.7813328 67.44,13.888 L67.44,18 L65.52,18 L65.52,10.32 Z M71.472,14.16 C71.472,13.551997 71.5813322,13.0000025 71.8,12.504 C72.0186678,12.0079975 72.3146648,11.5840018 72.688,11.232 C73.0613352,10.8799982 73.5039974,10.608001 74.016,10.416 C74.5280026,10.223999 75.0719971,10.128 75.648,10.128 C76.2240029,10.128 76.7679974,10.223999 77.28,10.416 C77.7920026,10.608001 78.2346648,10.8799982 78.608,11.232 C78.9813352,11.5840018 79.2773322,12.0079975 79.496,12.504 C79.7146678,13.0000025 79.824,13.551997 79.824,14.16 C79.824,14.768003 79.7146678,15.3199975 79.496,15.816 C79.2773322,16.3120025 78.9813352,16.7359982 78.608,17.088 C78.2346648,17.4400018 77.7920026,17.711999 77.28,17.904 C76.7679974,18.096001 76.2240029,18.192 75.648,18.192 C75.0719971,18.192 74.5280026,18.096001 74.016,17.904 C73.5039974,17.711999 73.0613352,17.4400018 72.688,17.088 C72.3146648,16.7359982 72.0186678,16.3120025 71.8,15.816 C71.5813322,15.3199975 71.472,14.768003 71.472,14.16 Z M73.392,14.16 C73.392,14.4586682 73.4426662,14.7466653 73.544,15.024 C73.6453338,15.3013347 73.7946657,15.5466656 73.992,15.76 C74.1893343,15.9733344 74.4266653,16.1439994 74.704,16.272 C74.9813347,16.4000006 75.2959982,16.464 75.648,16.464 C76.0000018,16.464 76.3146653,16.4000006 76.592,16.272 C76.8693347,16.1439994 77.1066657,15.9733344 77.304,15.76 C77.5013343,15.5466656 77.6506662,15.3013347 77.752,15.024 C77.8533338,14.7466653 77.904,14.4586682 77.904,14.16 C77.904,13.8613318 77.8533338,13.5733347 77.752,13.296 C77.6506662,13.0186653 77.5013343,12.7733344 77.304,12.56 C77.1066657,12.3466656 76.8693347,12.1760006 76.592,12.048 C76.3146653,11.9199994 76.0000018,11.856 75.648,11.856 C75.2959982,11.856 74.9813347,11.9199994 74.704,12.048 C74.4266653,12.1760006 74.1893343,12.3466656 73.992,12.56 C73.7946657,12.7733344 73.6453338,13.0186653 73.544,13.296 C73.4426662,13.5733347 73.392,13.8613318 73.392,14.16 Z M82.016,10.32 L83.84,10.32 L83.84,11.472 L83.872,11.472 C84.1493347,11.0026643 84.5226643,10.6613344 84.992,10.448 C85.4613357,10.2346656 85.9679973,10.128 86.512,10.128 C87.0986696,10.128 87.6266643,10.231999 88.096,10.44 C88.5653357,10.648001 88.9653317,10.9333315 89.296,11.296 C89.6266683,11.6586685 89.8773325,12.0853309 90.048,12.576 C90.2186675,13.0666691 90.304,13.5946638 90.304,14.16 C90.304,14.7253362 90.2133342,15.2533309 90.032,15.744 C89.8506658,16.2346691 89.597335,16.6613315 89.272,17.024 C88.946665,17.3866685 88.554669,17.671999 88.096,17.88 C87.637331,18.088001 87.1360027,18.192 86.592,18.192 C86.2293315,18.192 85.9093347,18.154667 85.632,18.08 C85.3546653,18.005333 85.1093344,17.9093339 84.896,17.792 C84.6826656,17.6746661 84.5013341,17.549334 84.352,17.416 C84.2026659,17.282666 84.0800005,17.1520006 83.984,17.024 L83.936,17.024 L83.936,21.648 L82.016,21.648 L82.016,10.32 Z M88.384,14.16 C88.384,13.8613318 88.3333338,13.5733347 88.232,13.296 C88.1306662,13.0186653 87.9813343,12.7733344 87.784,12.56 C87.5866657,12.3466656 87.3493347,12.1760006 87.072,12.048 C86.7946653,11.9199994 86.4800018,11.856 86.128,11.856 C85.7759982,11.856 85.4613347,11.9199994 85.184,12.048 C84.9066653,12.1760006 84.6693343,12.3466656 84.472,12.56 C84.2746657,12.7733344 84.1253338,13.0186653 84.024,13.296 C83.9226662,13.5733347 83.872,13.8613318 83.872,14.16 C83.872,14.4586682 83.9226662,14.7466653 84.024,15.024 C84.1253338,15.3013347 84.2746657,15.5466656 84.472,15.76 C84.6693343,15.9733344 84.9066653,16.1439994 85.184,16.272 C85.4613347,16.4000006 85.7759982,16.464 86.128,16.464 C86.4800018,16.464 86.7946653,16.4000006 87.072,16.272 C87.3493347,16.1439994 87.5866657,15.9733344 87.784,15.76 C87.9813343,15.5466656 88.1306662,15.3013347 88.232,15.024 C88.3333338,14.7466653 88.384,14.4586682 88.384,14.16 Z M92.528,5.904 L94.448,5.904 L94.448,18 L92.528,18 L92.528,5.904 Z M98.592,14.832 C98.6560003,15.4080029 98.8799981,15.8559984 99.264,16.176 C99.6480019,16.4960016 100.111997,16.656 100.656,16.656 C101.136002,16.656 101.538665,16.5573343 101.864,16.36 C102.189335,16.1626657 102.474665,15.9146682 102.72,15.616 L104.096,16.656 C103.647998,17.2106694 103.146669,17.6053322 102.592,17.84 C102.037331,18.0746678 101.456003,18.192 100.848,18.192 C100.271997,18.192 99.7280026,18.096001 99.216,17.904 C98.7039974,17.711999 98.2613352,17.4400018 97.888,17.088 C97.5146648,16.7359982 97.2186678,16.3120025 97,15.816 C96.7813322,15.3199975 96.672,14.768003 96.672,14.16 C96.672,13.551997 96.7813322,13.0000025 97,12.504 C97.2186678,12.0079975 97.5146648,11.5840018 97.888,11.232 C98.2613352,10.8799982 98.7039974,10.608001 99.216,10.416 C99.7280026,10.223999 100.271997,10.128 100.848,10.128 C101.381336,10.128 101.869331,10.2213324 102.312,10.408 C102.754669,10.5946676 103.133332,10.8639982 103.448,11.216 C103.762668,11.5680018 104.007999,12.0026641 104.184,12.52 C104.360001,13.0373359 104.448,13.6319966 104.448,14.304 L104.448,14.832 L98.592,14.832 Z M102.528,13.392 C102.517333,12.8266638 102.341335,12.381335 102,12.056 C101.658665,11.730665 101.184003,11.568 100.576,11.568 C99.9999971,11.568 99.5440017,11.7333317 99.208,12.064 C98.8719983,12.3946683 98.666667,12.8373306 98.592,13.392 L102.528,13.392 Z M105.744,11.952 L105.744,10.32 L107.328,10.32 L107.328,8.096 L109.248,8.096 L109.248,10.32 L111.36,10.32 L111.36,11.952 L109.248,11.952 L109.248,15.312 C109.248,15.6960019 109.319999,15.9999989 109.464,16.224 C109.608001,16.4480011 109.893331,16.56 110.32,16.56 C110.490668,16.56 110.677332,16.5413335 110.88,16.504 C111.082668,16.4666665 111.242666,16.4053338 111.36,16.32 L111.36,17.936 C111.157332,18.0320005 110.909335,18.0986665 110.616,18.136 C110.322665,18.1733335 110.064001,18.192 109.84,18.192 C109.327997,18.192 108.909335,18.1360006 108.584,18.024 C108.258665,17.9119994 108.002668,17.7413345 107.816,17.512 C107.629332,17.2826655 107.501334,16.997335 107.432,16.656 C107.362666,16.314665 107.328,15.9200022 107.328,15.472 L107.328,11.952 L105.744,11.952 Z"/>
    <path fill="#37215A" d="M13.46875,5.234375 C13.8854188,5.70312734 14.3020812,6.21651507 14.71875,6.77455357 C15.1354188,7.33259208 15.6197889,8.04687065 16.171875,8.91741071 C16.7239611,9.78795078 17.166665,10.7477626 17.5,11.796875 C17.833335,12.8459874 18,13.8727628 18,14.8772321 C18,16.3058107 17.5104216,17.5167361 16.53125,18.5100446 C15.5520784,19.5033532 14.3750069,20 13,20 C12.1249956,20 11.317712,19.7935289 10.578125,19.3805804 C9.83853797,18.9676319 9.25000219,18.4040214 8.8125,17.6897321 C8.6458325,17.3995521 8.48958406,17.0758946 8.34375,16.71875 C8.11458219,16.1160684 8,15.5022353 8,14.8772321 L8,14.7433036 C8.02083344,12.8682942 8.68749344,10.8259039 10,8.61607143 C10.4166688,7.92410368 11.0312459,7.06473728 11.84375,6.03794643 C12.2187519,5.59151562 12.4479163,5.32366116 12.53125,5.234375 L12.5625,5.20089286 C12.7291675,5.06696362 12.8749994,5 13,5 C13.1250006,5 13.2708325,5.06696362 13.4375,5.20089286 L13.46875,5.234375 Z"/>
    <path fill="#ED2387" d="M13.5277778,18 C14.4768566,18 15.2928207,17.648813 15.9756944,16.9464286 C16.6585682,16.2440441 17,15.4047668 17,14.4285714 C17,13.9285689 16.9074083,13.4523832 16.7222222,13 C16.4212948,14.1666725 15.8425969,15.1726148 14.9861111,16.0178571 C14.1296253,16.8630995 13.1342649,17.4047607 12,17.6428571 C12.5092618,17.8809536 13.018516,18 13.5277778,18 Z"/>
  </g>
</svg>
